<svg xmlns="http://www.w3.org/2000/svg" width="24" height="24" viewBox="0 0 24 24" fill="none">
  <path d="M6.3257 10.6828H5.88055C4.56787 10.6828 3.50372 9.61861 3.50372 8.30592" stroke="currentColor" stroke-width="1.3" stroke-miterlimit="10" stroke-linecap="round" stroke-linejoin="round"/>
  <path d="M17.6744 10.6828H18.1195C19.4322 10.6828 20.4963 9.61861 20.4963 8.30592" stroke="currentColor" stroke-opacity="0.3" stroke-width="1.3" stroke-miterlimit="10" stroke-linecap="round" stroke-linejoin="round"/>
  <path d="M6.3257 16.7358H5.88055C4.56787 16.7358 3.50372 17.8 3.50372 19.1127" stroke="currentColor" stroke-width="1.3" stroke-miterlimit="10" stroke-linecap="round" stroke-linejoin="round"/>
  <path d="M17.6744 16.7358H18.1195C19.4322 16.7358 20.4963 17.8 20.4963 19.1127" stroke="currentColor" stroke-opacity="0.3" stroke-width="1.3" stroke-miterlimit="10" stroke-linecap="round" stroke-linejoin="round"/>
  <path d="M6.05631 13.7088L3.50372 13.7088" stroke="currentColor" stroke-width="1.3" stroke-miterlimit="10" stroke-linecap="round" stroke-linejoin="round"/>
  <path d="M17.9437 13.7088L20.4963 13.7088" stroke="currentColor" stroke-opacity="0.3" stroke-width="1.3" stroke-miterlimit="10" stroke-linecap="round" stroke-linejoin="round"/>
  <path d="M6.32568 11.5823C6.32568 9.92544 7.66883 8.58229 9.32568 8.58229H14.6743C16.3312 8.58229 17.6743 9.92544 17.6743 11.5823V14.2566C17.6743 17.3905 15.1339 19.931 12 19.931C8.86617 19.931 6.32568 17.3905 6.32568 14.2566V11.5823Z" fill="currentColor" fill-opacity="0.3" stroke="currentColor" stroke-width="1.3" stroke-miterlimit="10" stroke-linecap="round" stroke-linejoin="round"/>
  <path d="M12.1005 8.9296V13.6791" stroke="currentColor" stroke-opacity="0.3" stroke-width="1.3" stroke-miterlimit="10" stroke-linecap="round" stroke-linejoin="round"/>
  <path d="M14.8872 8.58267V7.43463C14.8872 5.84005 13.5946 4.54739 12 4.54739C10.4054 4.54739 9.11273 5.84005 9.11273 7.43463V8.58267" stroke="currentColor" stroke-width="1.3" stroke-miterlimit="10" stroke-linecap="round" stroke-linejoin="round"/>
  <path d="M10.1445 5.2486L8.96429 4.06836" stroke="currentColor" stroke-opacity="0.3" stroke-width="1.3" stroke-miterlimit="10" stroke-linecap="round" stroke-linejoin="round"/>
  <path d="M14.0566 5.2486L15.2368 4.06836" stroke="currentColor" stroke-width="1.3" stroke-miterlimit="10" stroke-linecap="round" stroke-linejoin="round"/>
</svg>
