<svg xmlns="http://www.w3.org/2000/svg" width="24" height="24" viewBox="0 0 24 24" fill="none">
  <path fill="currentColor" fill-rule="evenodd" d="M10 2L14 2L14 4L16 4L16 6L8 6L8 4L10 4L10 2ZM8 6L8 8L6 8L6 16L4 16L4 14L2 14L2 10L4 10L4 6L8 6ZM16 6L18 6L18 8L16 8L16 6ZM18 8L20 8L20 10L22 10L22 14L20 14L20 16L18 16L18 8ZM16 8L16 12L14 12L14 16L10 16L10 14L8 14L8 10L12 10L12 8L16 8ZM6 16L8 16L8 18L6 18L6 16ZM18 16L18 18L16 18L16 16L18 16ZM8 18L16 18L16 20L14 20L14 22L10 22L10 20L8 20L8 18Z"/>
</svg>
