<svg xmlns="http://www.w3.org/2000/svg" width="24" height="24" viewBox="0 0 24 24" fill="none">
  <path d="M2.71326 6.55762C2.71326 4.90076 4.0564 3.55762 5.71326 3.55762H11.9999H18.2866C19.9435 3.55762 21.2866 4.90076 21.2866 6.55762V12.0001V17.4425C21.2866 19.0994 19.9435 20.4425 18.2866 20.4425H11.9999H5.71326C4.0564 20.4425 2.71326 19.0994 2.71326 17.4425V12.0001V6.55762Z" fill="currentColor" fill-opacity="0.3"/>
  <path d="M2.71326 12.0001V17.4425C2.71326 19.0994 4.0564 20.4425 5.71326 20.4425H11.9999H18.2866C19.9435 20.4425 21.2866 19.0994 21.2866 17.4425V12.0001M2.71326 12.0001V6.55762C2.71326 4.90076 4.0564 3.55762 5.71326 3.55762H11.9999H18.2866C19.9435 3.55762 21.2866 4.90076 21.2866 6.55762V12.0001M2.71326 12.0001H21.2866" stroke="currentColor" stroke-width="1.3" stroke-linecap="round" stroke-linejoin="round"/>
</svg>
