<svg xmlns="http://www.w3.org/2000/svg" width="24" height="24" viewBox="0 0 24 24" fill="none">
  <g transform="matrix(0.046784 0 0 0.046784 0 4)" clip-path="url(#round)" stroke="none">
  <path d="M0 0.00390625H513V341.997H0V0.00390625Z" fill="white" stroke="none"/>
  <path d="M0 0.00390625H513V68.4002H0V0.00390625ZM0 136.797H513V205.193H0V136.797ZM0 273.6H513V341.997H0V273.6Z" fill="#D80027" stroke="none"/>
  <path d="M256.5 171.006L0 342.002V-0.00195312L256.5 171.006Z" fill="#0052B4" stroke="none"/>
  <path d="M83.6401 110.013L98.7766 156.602H147.766L108.135 185.397L123.271 231.987L83.6401 203.193L44.0079 231.987L59.1474 185.397L19.5161 156.602H68.5036L83.6401 110.013Z" fill="white" stroke="none"/>
  </g>
  <rect x="0.25" y="4.25" width="23.5" height="15.5" rx="1.35" stroke="#000" stroke-opacity="0.1" stroke-width="0.5"/>
  <defs><clipPath id="round"><rect width="513" height="342" rx="34.2" ry="34.2"/></clipPath></defs>
</svg>
